{"title":"Now.You.See.Me.2013.EXTENDED.BRRip.XviD.AC3.1400MB-TST","uid":8834562,"size":1467594752,"categoryP":"video","categoryS":"movies","magnet":"?xt=urn:btih:d1cbbca732947ecbe2f985bbd80d5474defbf64e&amp;dn=Now.You.See.Me.2013.EXTENDED.BRRip.XviD.AC3.1400MB-TST&amp;tr=udp%3A%2F%2Ftracker.openbittorrent.com%3A80&amp;tr=udp%3A%2F%2Fopen.demonii.com%3A1337&amp;tr=udp%3A%2F%2Ftracker.coppersurfer.tk%3A6969&amp;tr=udp%3A%2F%2Fexodus.desync.com%3A6969","seeders":2,"leechers":1,"uploader":"Helliod","files":1,"time":1377080073,"description":"File: Now.You.See.Me.2013.EXTENDED.BRRip.XviD.AC3.1400MB-TST.avi\nFilesize: 1399.61 Mb ( 1,467,594,752 bytes )\nPlay length: 02:05:46.163 (180927 frames)\nSubtitles: Not Present\nVideo: 720x304 (2.37:1), 23.976 fps, XviD build 50 ~1162 kbps avg, 0.22 bit/pixel\nAudio: 48 kHz, AC3 Dolby Digital, 3/2 (L,C,R,l,r) + LFE ch, ~384 kbps\n\n\n\n\nNow.You.See.Me.2013.EXTENDED.BRRip.XviD.AC3.1400MB-TST.avi\n\n\nFormat                                   : AVI\nFormat/Info                              : Audio Video Interleave\nFile size                                : 1.37 GiB\nDuration                                 : 2h 5mn\nOverall bit rate                         : 1 556 Kbps\nWriting application                      : VirtualDubMod 1.5.10.2 (build 2540/release)\nWriting library                          : VirtualDubMod build 2540/release\n\nVideo\nID                                       : 0\nFormat                                   : MPEG-4 Visual\nFormat profile                           : Advanced Simple@L5\nFormat settings, BVOP                    : 2\nFormat settings, QPel                    : No\nFormat settings, GMC                     : No warppoints\nFormat settings, Matrix                  : Default (MPEG)\nCodec ID                                 : XVID\nCodec ID/Hint                            : XviD\nDuration                                 : 2h 5mn\nBit rate                                 : 1 163 Kbps\nWidth                                    : 720 pixels\nHeight                                   : 304 pixels\nDisplay aspect ratio                     : 2.35:1\nFrame rate                               : 23.976 fps\nColor space                              : YUV\nChroma subsampling                       : 4:2:0\nBit depth                                : 8 bits\nScan type                                : Progressive\nCompression mode                         : Lossy\nBits/(Pixel*Frame)                       : 0.222\nStream size                              : 1.02 GiB (75%)\nWriting library                          : XviD 1.2.1 (UTC 2008-12-04)\n\nAudio\nID                                       : 1\nFormat                                   : AC-3\nFormat/Info                              : Audio Coding 3\nMode extension                           : CM (complete main)\nFormat settings, Endianness              : Big\nCodec ID                                 : 2000\nDuration                                 : 2h 5mn\nBit rate mode                            : Constant\nBit rate                                 : 384 Kbps\nChannel(s)                               : 6 channels\nChannel positions                        : Front: L C R, Side: L R, LFE\nSampling rate                            : 48.0 KHz\nBit depth                                : 16 bits\nCompression mode                         : Lossy\nStream size                              : 345 MiB (25%)\nAlignment                                : Split accross interleaves\nInterleave, duration                     : 42 ms (1.00 video frame)\nInterleave, preload duration             : 500 ms","torrent":{"xt":"urn:btih:d1cbbca732947ecbe2f985bbd80d5474defbf64e","amp;dn":"Now.You.See.Me.2013.EXTENDED.BRRip.XviD.AC3.1400MB-TST","amp;tr":["udp%3A%2F%2Ftracker.openbittorrent.com%3A80","udp%3A%2F%2Fopen.demonii.com%3A1337","udp%3A%2F%2Ftracker.coppersurfer.tk%3A6969","udp%3A%2F%2Fexodus.desync.com%3A6969"],"infoHash":"d1cbbca732947ecbe2f985bbd80d5474defbf64e","infoHashBuffer":{"type":"Buffer","data":[209,203,188,167,50,148,126,203,226,249,133,187,216,13,84,116,222,251,246,78]},"announce":[],"urlList":[]}}